# xmcd
#
# Track frame offsets:
#	150
#	22975
#	40184
#	64337
#
# Disc length: 1060 seconds
#
# Revision: 1
# Processed by: cddbd v1.5.2PL0 Copyright (c) Steve Scherf et al.
# Submitted via: audiograbber 1.83.01
#
DISCID=2c042204
DTITLE=Tawny Ellis - Ghosts Of The Low Country
DYEAR=2014
DGENRE=Country
TTITLE0=Ghosts Of The Low Country
TTITLE1=Evolve Or Die
TTITLE2=Desperate Tonight
TTITLE3=Walking After Midnight
EXTD=
EXTT0=
EXTT1=
EXTT2=
EXTT3=
PLAYORDER=
